<svg xmlns="http://www.w3.org/2000/svg" viewBox="0 0 600 450" width="600" height="450">
  <defs>
    <radialGradient id="g2-bg" cx="50%" cy="50%" r="80%">
      <stop offset="0%" stop-color="#1a0a07"/>
      <stop offset="100%" stop-color="#0a0a0a"/>
    </radialGradient>
    <linearGradient id="g2-strip" x1="0%" y1="0%" x2="100%" y2="0%">
      <stop offset="0%" stop-color="#ff5a3c" stop-opacity="0.15"/>
      <stop offset="50%" stop-color="#ff5a3c" stop-opacity="0.85"/>
      <stop offset="100%" stop-color="#ff5a3c" stop-opacity="0.15"/>
    </linearGradient>
  </defs>
  <rect width="600" height="450" fill="url(#g2-bg)"/>

  <!-- scrolling film strip -->
  <g transform="translate(0 225) rotate(-8) translate(0 -45)">
    <g>
      <animateTransform attributeName="transform" type="translate" from="0 0" to="-100 0" dur="3s" repeatCount="indefinite"/>
      <rect x="-150" y="0" width="900" height="90" fill="url(#g2-strip)"/>
      <rect x="-150" y="0" width="900" height="90" fill="none" stroke="#ff5a3c" stroke-width="1" opacity="0.8"/>
      <g fill="#0a0a0a">
        <rect x="-100" y="8" width="24" height="14" rx="2"/>
        <rect x="-50" y="8" width="24" height="14" rx="2"/>
        <rect x="0" y="8" width="24" height="14" rx="2"/>
        <rect x="50" y="8" width="24" height="14" rx="2"/>
        <rect x="100" y="8" width="24" height="14" rx="2"/>
        <rect x="150" y="8" width="24" height="14" rx="2"/>
        <rect x="200" y="8" width="24" height="14" rx="2"/>
        <rect x="250" y="8" width="24" height="14" rx="2"/>
        <rect x="300" y="8" width="24" height="14" rx="2"/>
        <rect x="350" y="8" width="24" height="14" rx="2"/>
        <rect x="400" y="8" width="24" height="14" rx="2"/>
        <rect x="450" y="8" width="24" height="14" rx="2"/>
        <rect x="500" y="8" width="24" height="14" rx="2"/>
        <rect x="550" y="8" width="24" height="14" rx="2"/>
        <rect x="600" y="8" width="24" height="14" rx="2"/>
        <rect x="650" y="8" width="24" height="14" rx="2"/>
        <rect x="700" y="8" width="24" height="14" rx="2"/>
      </g>
      <g fill="#0a0a0a">
        <rect x="-100" y="68" width="24" height="14" rx="2"/>
        <rect x="-50" y="68" width="24" height="14" rx="2"/>
        <rect x="0" y="68" width="24" height="14" rx="2"/>
        <rect x="50" y="68" width="24" height="14" rx="2"/>
        <rect x="100" y="68" width="24" height="14" rx="2"/>
        <rect x="150" y="68" width="24" height="14" rx="2"/>
        <rect x="200" y="68" width="24" height="14" rx="2"/>
        <rect x="250" y="68" width="24" height="14" rx="2"/>
        <rect x="300" y="68" width="24" height="14" rx="2"/>
        <rect x="350" y="68" width="24" height="14" rx="2"/>
        <rect x="400" y="68" width="24" height="14" rx="2"/>
        <rect x="450" y="68" width="24" height="14" rx="2"/>
        <rect x="500" y="68" width="24" height="14" rx="2"/>
        <rect x="550" y="68" width="24" height="14" rx="2"/>
        <rect x="600" y="68" width="24" height="14" rx="2"/>
        <rect x="650" y="68" width="24" height="14" rx="2"/>
        <rect x="700" y="68" width="24" height="14" rx="2"/>
      </g>
    </g>
  </g>

  <!-- animated waveform -->
  <g stroke="#ff5a3c" stroke-width="3" stroke-linecap="round">
    <line x1="60" y1="320" x2="60" y2="360"><animate attributeName="y1" values="320;280;330;310;320" dur="1.2s" repeatCount="indefinite"/><animate attributeName="y2" values="360;400;350;370;360" dur="1.2s" repeatCount="indefinite"/></line>
    <line x1="78" y1="300" x2="78" y2="380"><animate attributeName="y1" values="300;260;310;290;300" dur="1.0s" repeatCount="indefinite"/><animate attributeName="y2" values="380;420;370;390;380" dur="1.0s" repeatCount="indefinite"/></line>
    <line x1="96" y1="270" x2="96" y2="410"><animate attributeName="y1" values="270;230;290;250;270" dur="1.4s" repeatCount="indefinite"/><animate attributeName="y2" values="410;450;390;430;410" dur="1.4s" repeatCount="indefinite"/></line>
    <line x1="114" y1="290" x2="114" y2="390"><animate attributeName="y1" values="290;260;310;280;290" dur="0.9s" repeatCount="indefinite"/><animate attributeName="y2" values="390;420;370;400;390" dur="0.9s" repeatCount="indefinite"/></line>
    <line x1="132" y1="250" x2="132" y2="430"><animate attributeName="y1" values="250;210;270;240;250" dur="1.3s" repeatCount="indefinite"/><animate attributeName="y2" values="430;470;410;440;430" dur="1.3s" repeatCount="indefinite"/></line>
    <line x1="150" y1="280" x2="150" y2="400"><animate attributeName="y1" values="280;250;290;270;280" dur="1.1s" repeatCount="indefinite"/><animate attributeName="y2" values="400;430;390;410;400" dur="1.1s" repeatCount="indefinite"/></line>
    <line x1="168" y1="240" x2="168" y2="440"><animate attributeName="y1" values="240;200;260;230;240" dur="1.5s" repeatCount="indefinite"/><animate attributeName="y2" values="440;480;420;450;440" dur="1.5s" repeatCount="indefinite"/></line>
    <line x1="186" y1="270" x2="186" y2="410"><animate attributeName="y1" values="270;240;280;260;270" dur="1.0s" repeatCount="indefinite"/><animate attributeName="y2" values="410;440;400;420;410" dur="1.0s" repeatCount="indefinite"/></line>
    <line x1="204" y1="300" x2="204" y2="380"><animate attributeName="y1" values="300;270;310;290;300" dur="0.8s" repeatCount="indefinite"/><animate attributeName="y2" values="380;410;370;390;380" dur="0.8s" repeatCount="indefinite"/></line>
    <line x1="222" y1="260" x2="222" y2="420"><animate attributeName="y1" values="260;230;280;250;260" dur="1.2s" repeatCount="indefinite"/><animate attributeName="y2" values="420;450;400;430;420" dur="1.2s" repeatCount="indefinite"/></line>
    <line x1="240" y1="290" x2="240" y2="390"><animate attributeName="y1" values="290;260;310;280;290" dur="1.1s" repeatCount="indefinite"/><animate attributeName="y2" values="390;420;370;400;390" dur="1.1s" repeatCount="indefinite"/></line>
    <line x1="258" y1="320" x2="258" y2="360"><animate attributeName="y1" values="320;280;330;310;320" dur="0.9s" repeatCount="indefinite"/><animate attributeName="y2" values="360;400;350;370;360" dur="0.9s" repeatCount="indefinite"/></line>
    <line x1="276" y1="280" x2="276" y2="400"><animate attributeName="y1" values="280;250;290;270;280" dur="1.3s" repeatCount="indefinite"/><animate attributeName="y2" values="400;430;390;410;400" dur="1.3s" repeatCount="indefinite"/></line>
    <line x1="294" y1="250" x2="294" y2="430"><animate attributeName="y1" values="250;220;270;240;250" dur="1.0s" repeatCount="indefinite"/><animate attributeName="y2" values="430;460;410;440;430" dur="1.0s" repeatCount="indefinite"/></line>
    <line x1="312" y1="290" x2="312" y2="390"><animate attributeName="y1" values="290;260;310;280;290" dur="1.4s" repeatCount="indefinite"/><animate attributeName="y2" values="390;420;370;400;390" dur="1.4s" repeatCount="indefinite"/></line>
    <line x1="330" y1="270" x2="330" y2="410"><animate attributeName="y1" values="270;240;290;260;270" dur="1.1s" repeatCount="indefinite"/><animate attributeName="y2" values="410;440;390;420;410" dur="1.1s" repeatCount="indefinite"/></line>
    <line x1="348" y1="240" x2="348" y2="440"><animate attributeName="y1" values="240;210;270;230;240" dur="1.6s" repeatCount="indefinite"/><animate attributeName="y2" values="440;470;410;450;440" dur="1.6s" repeatCount="indefinite"/></line>
    <line x1="366" y1="290" x2="366" y2="390"><animate attributeName="y1" values="290;260;310;280;290" dur="0.9s" repeatCount="indefinite"/><animate attributeName="y2" values="390;420;370;400;390" dur="0.9s" repeatCount="indefinite"/></line>
    <line x1="384" y1="310" x2="384" y2="370"><animate attributeName="y1" values="310;280;320;300;310" dur="1.0s" repeatCount="indefinite"/><animate attributeName="y2" values="370;400;360;380;370" dur="1.0s" repeatCount="indefinite"/></line>
    <line x1="402" y1="280" x2="402" y2="400"><animate attributeName="y1" values="280;250;300;270;280" dur="1.2s" repeatCount="indefinite"/><animate attributeName="y2" values="400;430;380;410;400" dur="1.2s" repeatCount="indefinite"/></line>
    <line x1="420" y1="260" x2="420" y2="420"><animate attributeName="y1" values="260;230;280;250;260" dur="1.4s" repeatCount="indefinite"/><animate attributeName="y2" values="420;450;400;430;420" dur="1.4s" repeatCount="indefinite"/></line>
    <line x1="438" y1="290" x2="438" y2="390"><animate attributeName="y1" values="290;260;310;280;290" dur="1.0s" repeatCount="indefinite"/><animate attributeName="y2" values="390;420;370;400;390" dur="1.0s" repeatCount="indefinite"/></line>
    <line x1="456" y1="320" x2="456" y2="360"><animate attributeName="y1" values="320;290;330;310;320" dur="0.8s" repeatCount="indefinite"/><animate attributeName="y2" values="360;390;350;370;360" dur="0.8s" repeatCount="indefinite"/></line>
    <line x1="474" y1="300" x2="474" y2="380"><animate attributeName="y1" values="300;270;320;290;300" dur="1.1s" repeatCount="indefinite"/><animate attributeName="y2" values="380;410;360;390;380" dur="1.1s" repeatCount="indefinite"/></line>
    <line x1="492" y1="270" x2="492" y2="410"><animate attributeName="y1" values="270;240;290;260;270" dur="1.3s" repeatCount="indefinite"/><animate attributeName="y2" values="410;440;390;420;410" dur="1.3s" repeatCount="indefinite"/></line>
    <line x1="510" y1="290" x2="510" y2="390"><animate attributeName="y1" values="290;260;310;280;290" dur="1.0s" repeatCount="indefinite"/><animate attributeName="y2" values="390;420;370;400;390" dur="1.0s" repeatCount="indefinite"/></line>
    <line x1="528" y1="310" x2="528" y2="370"><animate attributeName="y1" values="310;280;320;300;310" dur="0.9s" repeatCount="indefinite"/><animate attributeName="y2" values="370;400;360;380;370" dur="0.9s" repeatCount="indefinite"/></line>
    <line x1="546" y1="320" x2="546" y2="360"><animate attributeName="y1" values="320;290;330;310;320" dur="1.2s" repeatCount="indefinite"/><animate attributeName="y2" values="360;390;350;370;360" dur="1.2s" repeatCount="indefinite"/></line>
  </g>

  <!-- pulsing play button -->
  <g transform="translate(300 200)">
    <circle r="40" fill="#0a0a0a" stroke="#ff5a3c" stroke-width="2">
      <animate attributeName="r" values="40;48;40" dur="2s" repeatCount="indefinite"/>
      <animate attributeName="opacity" values="1;0.6;1" dur="2s" repeatCount="indefinite"/>
    </circle>
    <path d="M-10 -16 L18 0 L-10 16 Z" fill="#ff5a3c"/>
  </g>
</svg>
